<?xml version="1.0" encoding="utf-8"?>
<!-- Generator: Adobe Illustrator 22.1.0, SVG Export Plug-In . SVG Version: 6.00 Build 0)  -->
<svg version="1.1" id="Layer_1" xmlns="http://www.w3.org/2000/svg" xmlns:xlink="http://www.w3.org/1999/xlink" x="0px" y="0px"
	 viewBox="0 0 625.5 309" style="enable-background:new 0 0 625.5 309;" xml:space="preserve">
<style type="text/css">
	.st0{fill:#262262;}
	.st1{fill:#2B3990;}
	.st2{fill:#1B75BC;}
	.st3{fill:#27AAE1;}
	.st4{fill:#F1F2F2;}
</style>
<desc  xmlns:shape="http://adobe.com/products/shape"></desc>
<path class="st0" d="M217.8,71.2L50.3,124.1c-10.9,3.4-14,17.4-5.6,25.1l129.6,118.7c8.4,7.7,22,3.4,24.5-7.7l38-171.6
	C239.2,77.4,228.7,67.8,217.8,71.2z"/>
<path class="st1" d="M188.6,61.2L38.3,152.3c-9.8,5.9-9.5,20.2,0.5,25.7l154,84.6c10,5.5,22.2-1.9,22-13.3l-3.8-175.7
	C210.8,62.2,198.3,55.3,188.6,61.2z"/>
<path class="st2" d="M157.9,53.9L37.2,181.5c-7.8,8.3-3.8,22,7.3,24.6l170.9,40.7c11.1,2.6,20.9-7.7,17.7-18.7L182.9,59.8
	C179.6,48.9,165.8,45.6,157.9,53.9z"/>
<path class="st3" d="M132,53.3L46.1,206.6c-5.6,10,1.7,22.2,13.1,22.1l175.7-2.3c11.4-0.1,18.4-12.6,12.6-22.4l-89.8-151
	C151.8,43.1,137.6,43.3,132,53.3z"/>
<path class="st4" d="M136.3,83.4L74,194.6c-4,7.1,1.2,15.9,9.4,15.8l127.4-1.7c8.2-0.1,13.2-9,9-16.1L154.7,83.2
	C150.5,76.1,140.3,76.3,136.3,83.4z"/>
<g>
	<path class="st0" d="M377.1,207.3c0,0.8-0.3,1.4-0.8,1.8c-0.5,0.4-1.2,0.7-2,0.7c-1.5,0-2.5-0.7-3.1-2.1l-11.9-27.3h-58.7
		l-12.1,27.3c-0.6,1.4-1.6,2.1-2.9,2.1c-1.1,0-1.9-0.3-2.5-1s-0.7-1.6-0.3-2.6l43.5-99.2c0.6-1.6,1.8-2.4,3.5-2.4
		c0.8,0,1.5,0.2,2.1,0.7c0.6,0.4,1.1,1,1.4,1.7l43.4,99.2C377,206.7,377.1,207.1,377.1,207.3z M303.2,174.5h53.5l-26.8-61.2
		L303.2,174.5z"/>
	<path class="st0" d="M427.1,136.4c1.2,0,2,0.2,2.4,0.7c0.4,0.4,0.7,1.1,0.7,2c0,1.7-1,2.6-3.1,2.9l-4.4,0.4
		c-7.2,0.7-12.5,3.3-16.2,7.9c-3.6,4.6-5.4,9.9-5.4,15.9v40.1c0,1.1-0.3,1.9-0.8,2.5c-0.5,0.6-1.3,0.9-2.3,0.9c-1,0-1.7-0.3-2.3-0.9
		c-0.5-0.6-0.8-1.4-0.8-2.5v-66.6c0-2.3,1-3.4,3.1-3.4c0.9,0,1.6,0.3,2.2,0.9c0.6,0.6,0.9,1.4,0.9,2.5v10.6
		c4.2-8.4,11.9-13,22.9-13.8l2.1-0.1H427.1z"/>
	<path class="st0" d="M480,207c0,2.2-1.4,3.1-4.3,2.8l-3.8-0.3c-7.3-0.5-12.7-2.7-16.2-6.7c-3.4-4-5.1-10.1-5.1-18.4v-41.2h-12.2
		c-0.7,0-1.3-0.2-1.8-0.7c-0.5-0.5-0.7-1.1-0.7-1.8c0-0.8,0.2-1.4,0.7-2c0.5-0.5,1.1-0.8,1.8-0.8h12.2v-19.6c0-1.1,0.3-1.9,0.9-2.5
		c0.6-0.6,1.3-0.9,2.2-0.9c0.9,0,1.6,0.3,2.2,0.9c0.6,0.6,0.9,1.4,0.9,2.5v19.6h19.6c0.7,0,1.3,0.3,1.8,0.8c0.5,0.5,0.7,1.2,0.7,2
		c0,0.7-0.2,1.3-0.7,1.8c-0.4,0.5-1.1,0.7-1.8,0.7h-19.6v41.3c0,6.7,1.3,11.4,3.9,14.3c2.6,2.8,6.6,4.5,12.1,5l4,0.3
		C478.9,204.3,480,205.2,480,207z"/>
	<path class="st0" d="M493.1,117.3c-1.1-1-1.6-2.3-1.6-3.8c0-1.7,0.5-3,1.5-4c1-1,2.3-1.5,3.9-1.5c1.6,0,2.9,0.5,3.9,1.5
		c1,1,1.5,2.3,1.5,4c0,1.6-0.5,2.8-1.6,3.8c-1.1,1-2.4,1.5-3.8,1.5S494.2,118.3,493.1,117.3z M494.6,208.9c-0.5-0.6-0.8-1.4-0.8-2.5
		v-66.7c0-1,0.3-1.8,0.8-2.4c0.5-0.6,1.3-0.9,2.3-0.9c1,0,1.7,0.3,2.3,0.9c0.5,0.6,0.8,1.4,0.8,2.4v66.7c0,1.1-0.3,1.9-0.8,2.5
		c-0.5,0.6-1.3,0.9-2.3,0.9C495.9,209.8,495.2,209.5,494.6,208.9z"/>
	<path class="st0" d="M535.6,205.5c-4.9-3-8.7-7.3-11.4-12.9c-2.7-5.6-4-12-4-19.3c0-7.4,1.3-13.8,4-19.5c2.7-5.6,6.5-10,11.5-13.1
		c4.9-3.1,10.6-4.6,17-4.6c3.6,0,7.2,0.5,10.6,1.4c3.4,0.9,6.5,2.4,9.1,4.3c1.9,1.5,3.2,2.7,3.9,3.6c0.7,0.9,1.1,1.9,1.1,3
		c0,0.7-0.2,1.3-0.7,1.8c-0.5,0.5-1.1,0.8-1.8,0.8c-0.5,0-1.1-0.2-1.8-0.7c-0.7-0.4-1.4-1-2.2-1.5c-2.6-2.1-5.3-3.7-8-5
		c-2.7-1.3-6.1-1.9-10.1-1.9c-8.1,0-14.5,2.8-19.1,8.4c-4.6,5.6-6.9,13.3-6.9,23.1c0,9.6,2.3,17.1,6.8,22.5c4.6,5.4,10.9,8.1,19,8.1
		c4.1,0,7.6-0.6,10.5-1.9c2.9-1.3,5.7-2.9,8.3-5c1.9-1.4,3.1-2.1,3.8-2.1c0.7,0,1.3,0.2,1.8,0.7c0.5,0.5,0.7,1.1,0.7,1.8
		c0,1-0.3,1.9-1,2.6c-0.7,0.8-2,2-4,3.5c-2.5,1.9-5.7,3.4-9.4,4.6c-3.7,1.2-7.4,1.8-11,1.8C546.1,210.1,540.5,208.6,535.6,205.5z"/>
</g>
</svg>
